<svg width="850" height="850" viewBox="0 0 850 850" fill="none" xmlns="http://www.w3.org/2000/svg">
<path d="M589.505 265.494C587.889 265.494 586.302 265.678 584.685 265.736C558.953 208.494 501.545 168.573 434.702 168.573C352.124 168.573 283.964 229.465 272.167 308.782C262.345 305.782 251.931 304.147 241.141 304.147C182.33 304.147 134.659 351.818 134.659 410.6C134.659 469.42 182.33 517.034 241.141 517.034H589.505C658.97 517.034 715.294 460.807 715.294 391.293C715.294 321.818 658.97 265.494 589.505 265.494Z" fill="#CEEBEC"/>
<path d="M444.351 517.032H241.141C182.33 517.032 134.659 469.418 134.659 410.598C134.659 351.816 182.33 304.145 241.141 304.145C251.835 304.145 262.161 305.761 271.916 308.712L273.464 309.158C271.316 320.074 270.154 331.329 270.154 342.874C270.154 439.079 348.136 517.032 444.351 517.032Z" fill="#B8D9E3"/>
<path d="M713.097 414.816C714.539 407.2 715.293 399.333 715.293 391.291C715.293 386.858 715.071 382.474 714.616 378.158H714.645C715.09 382.465 715.322 386.839 715.322 391.262C715.322 399.313 714.558 407.191 713.097 414.816ZM714.055 373.319H714.026C708.229 332.78 683.106 298.483 648.286 280.047H648.373C683.164 298.492 708.267 332.79 714.055 373.319ZM638.153 275.198H638.057C623.114 268.946 606.721 265.492 589.504 265.492C587.888 265.492 586.301 265.676 584.685 265.734C586.311 265.666 587.878 265.453 589.504 265.453C606.759 265.453 623.192 268.917 638.153 275.198Z" fill="white"/>
<path d="M648.374 280.046H648.287C644.968 278.285 641.552 276.668 638.058 275.197H638.155C641.639 276.668 645.055 278.285 648.374 280.046Z" fill="#BEE5EE"/>
<path d="M714.645 378.163H714.616C714.451 376.547 714.248 374.931 714.026 373.324H714.055C714.277 374.931 714.481 376.547 714.645 378.163Z" fill="#BEE5EE"/>
<path d="M584.299 264.868C584.241 264.743 584.192 264.627 584.134 264.501C584.183 264.627 584.241 264.743 584.299 264.868ZM583.989 264.201C583.95 264.104 583.902 264.007 583.854 263.901C583.902 263.998 583.95 264.104 583.989 264.201Z" fill="white"/>
<path d="M684.017 474.16C685.41 466.031 686.291 457.805 686.291 449.288C686.291 369.148 621.296 304.164 541.127 304.164C523.446 304.164 506.578 307.473 490.91 313.27C501.798 299.518 515.549 288.195 531.179 279.96C490.504 235.404 432.022 207.388 366.931 207.388C352.24 207.388 337.937 208.917 324.049 211.636C346.056 191.516 373.473 177.232 403.967 171.465C413.935 169.674 424.174 168.678 434.664 168.678C440.355 168.678 445.968 168.987 451.503 169.519L453.961 169.8C457.803 170.226 461.578 170.864 465.332 171.542C517.649 181.423 561.179 216.02 583.331 262.792C583.36 262.85 583.38 262.898 583.409 262.947C583.467 263.072 583.525 263.198 583.583 263.324C583.622 263.402 583.66 263.489 583.699 263.576C583.747 263.682 583.805 263.798 583.854 263.905C583.902 264.011 583.95 264.108 583.989 264.205C584.038 264.302 584.086 264.408 584.134 264.505C584.192 264.631 584.241 264.746 584.299 264.872C584.338 264.95 584.376 265.037 584.415 265.114C584.502 265.327 584.599 265.531 584.686 265.734C586.302 265.676 587.889 265.492 589.505 265.492C606.722 265.492 623.116 268.947 638.058 275.198C641.551 276.669 644.968 278.286 648.287 280.047C683.107 298.483 708.23 332.78 714.027 373.32C714.249 374.926 714.453 376.542 714.617 378.159C715.072 382.475 715.295 386.859 715.295 391.291C715.295 399.333 714.54 407.201 713.098 414.817C708.811 437.269 698.523 457.611 684.017 474.16Z" fill="#E7F5F7"/>
<path d="M470.838 391.262L328.22 546.064H400.482L368.972 681.55L521.771 517.031H450.467L470.838 391.262Z" fill="#F8F06C"/>
<path d="M521.771 526.709H589.514C664.341 526.709 724.99 466.127 725 391.3C724.99 316.502 664.341 255.882 589.514 255.872C587.124 255.891 585.43 256.104 584.366 256.124L584.704 265.801L593.53 261.824C566.278 201.262 505.474 159.01 434.721 159C347.255 159.019 275.09 223.453 262.615 307.396L272.196 308.818L275.012 299.557C264.299 296.305 252.928 294.515 241.141 294.515C177.007 294.515 125 346.493 125 410.597C125 474.74 176.978 526.709 241.121 526.709H354.949C360.291 526.709 364.626 522.451 364.626 517.031C364.626 511.709 360.291 507.354 354.949 507.354H241.121C214.372 507.354 190.246 496.612 172.701 478.999C155.175 461.482 144.365 437.346 144.365 410.597C144.365 383.868 155.175 359.742 172.71 342.206C190.256 324.68 214.382 313.87 241.141 313.87C250.973 313.87 260.418 315.351 269.37 318.08C272.051 318.893 274.993 318.496 277.364 316.996C279.735 315.506 281.351 313.009 281.767 310.241C292.848 235.666 357.001 178.336 434.721 178.355C497.606 178.345 551.617 215.904 575.888 269.769C577.504 273.369 581.114 275.615 585.053 275.469C587.201 275.382 588.643 275.218 589.514 275.227C621.614 275.237 650.579 288.215 671.628 309.235C692.658 330.264 705.635 359.219 705.645 391.3C705.635 423.391 692.658 452.385 671.628 473.385C650.579 494.386 621.614 507.354 589.514 507.354H521.771C516.419 507.354 512.093 511.709 512.093 517.031C512.093 522.451 516.419 526.709 521.771 526.709Z" fill="#2D4369"/>
<path d="M470.829 391.262L463.716 384.7L321.088 539.58C318.475 542.387 317.798 546.451 319.346 550.032C320.894 553.516 324.349 555.742 328.211 555.742H388.289L359.537 679.422C358.54 683.689 360.543 688.035 364.415 690.164C368.286 692.196 373.066 691.422 376.047 688.132L528.846 523.612C531.469 520.806 532.166 516.741 530.627 513.16C529.088 509.676 525.614 507.354 521.762 507.354H461.829L480.391 392.81C481.068 388.591 478.9 384.42 475.068 382.552C471.226 380.694 466.61 381.565 463.716 384.7L470.829 391.262L461.277 389.713L440.906 515.483C440.451 518.29 441.245 521.193 443.084 523.322C444.922 525.548 447.622 526.709 450.458 526.709H499.562L386.625 648.356L409.899 548.29C410.567 545.387 409.88 542.387 408.051 540.064C406.222 537.742 403.415 536.387 400.473 536.387H350.276L477.952 397.814L470.829 391.262Z" fill="#2D4369"/>
<path d="M262.519 589.03L201.028 666.451C197.708 670.612 198.405 676.709 202.586 680.096C206.776 683.386 212.863 682.709 216.183 678.451L277.674 601.127C280.994 596.869 280.297 590.772 276.116 587.482C271.926 584.191 265.838 584.869 262.519 589.03Z" fill="#2D4369"/>
<path d="M572.318 589.03L510.74 665.967C507.391 670.128 508.069 676.225 512.24 679.516C516.411 682.903 522.508 682.235 525.846 678.064L587.425 601.127C590.764 596.966 590.096 590.869 585.915 587.482C581.744 584.191 575.657 584.869 572.318 589.03Z" fill="#2D4369"/>
</svg>
