<svg width="850" height="850" viewBox="0 0 850 850" fill="none" xmlns="http://www.w3.org/2000/svg">
    <path d="M583.211 425.11C583.211 512.406 512.454 583.174 425.146 583.174C337.849 583.174 267.082 512.406 267.082 425.11C267.082 337.801 337.849 267.045 425.146 267.045C512.454 267.045 583.211 337.801 583.211 425.11Z" fill="#FECD03"/>
    <path d="M423.238 267.056C423.294 267.045 423.351 267.045 423.407 267.045C423.351 267.045 423.294 267.056 423.238 267.056Z" fill="white"/>
    <path d="M518.575 552.397C537.825 526.203 549.341 493.981 549.341 458.969C549.341 371.672 478.573 300.905 391.276 300.905C356.276 300.905 324.042 312.421 297.849 331.671C326.165 293.159 371.394 267.847 422.686 267.056H423.239C423.296 267.056 423.352 267.045 423.409 267.045H425.147C512.455 267.045 583.212 337.801 583.212 425.11V426.453C583.212 426.589 583.212 426.713 583.201 426.837V427.582C582.41 478.863 557.086 524.081 518.575 552.397Z" fill="#FCE681"/>
    <path d="M594.501 425.111H571.92C571.92 465.677 555.516 502.291 528.938 528.891C502.338 555.469 465.724 571.874 425.146 571.885C384.58 571.874 347.954 555.469 321.365 528.891C294.788 502.291 278.383 465.677 278.372 425.111C278.383 384.533 294.788 347.919 321.365 321.319C347.954 294.741 384.58 278.336 425.146 278.325C465.724 278.336 502.338 294.741 528.938 321.319C555.516 347.919 571.92 384.533 571.92 425.111H594.501C594.501 331.559 518.686 255.756 425.146 255.756C331.606 255.756 255.802 331.559 255.791 425.111C255.802 518.651 331.606 594.455 425.146 594.455C518.686 594.455 594.501 518.651 594.501 425.111Z" fill="#2D4369"/>
    <path d="M413.71 86.2903V176.591C413.71 182.823 418.757 187.881 425 187.881C431.232 187.881 436.29 182.823 436.29 176.591V86.2903C436.29 80.0468 431.232 75 425 75C418.757 75 413.71 80.0468 413.71 86.2903Z" fill="#2D4369"/>
    <path d="M413.71 673.409V763.698C413.71 769.93 418.757 774.988 425 774.988C431.232 774.988 436.29 769.93 436.29 763.698V673.409C436.29 667.166 431.232 662.119 425 662.119C418.757 662.119 413.71 667.166 413.71 673.409Z" fill="#2D4369"/>
    <path d="M763.71 413.7H673.41C667.166 413.7 662.119 418.747 662.119 424.991C662.119 431.223 667.166 436.281 673.41 436.281H763.71C769.942 436.281 775 431.223 775 424.991C775 418.747 769.942 413.7 763.71 413.7Z" fill="#2D4369"/>
    <path d="M176.59 413.7H86.2903C80.0468 413.7 75 418.747 75 424.991C75 431.223 80.0468 436.281 86.2903 436.281H176.59C182.823 436.281 187.881 431.223 187.881 424.991C187.881 418.747 182.823 413.7 176.59 413.7Z" fill="#2D4369"/>
    <path d="M177.505 193.475L241.352 257.333C245.755 261.747 252.902 261.747 257.316 257.333C261.731 252.93 261.731 245.783 257.316 241.368L193.48 177.51C189.066 173.096 181.919 173.096 177.516 177.51C173.101 181.913 173.102 189.06 177.505 193.475Z" fill="#2D4369"/>
    <path d="M592.649 608.627L656.507 672.474C660.922 676.888 668.068 676.888 672.483 672.474C676.886 668.071 676.886 660.924 672.483 656.509L608.613 592.651C604.21 588.248 597.063 588.248 592.649 592.651C588.246 597.066 588.246 604.212 592.649 608.627Z" fill="#2D4369"/>
    <path d="M656.507 177.51L592.649 241.357C588.246 245.76 588.246 252.918 592.649 257.321C597.063 261.736 604.21 261.736 608.613 257.321L672.483 193.475C676.886 189.071 676.886 181.913 672.483 177.51C668.068 173.096 660.922 173.096 656.507 177.51Z" fill="#2D4369"/>
    <path d="M241.351 592.651L177.493 656.509C173.078 660.924 173.078 668.071 177.493 672.474C181.896 676.888 189.043 676.888 193.457 672.474L257.315 608.627C261.73 604.212 261.73 597.066 257.315 592.651C252.912 588.248 245.754 588.248 241.351 592.651Z" fill="#2D4369"/>
</svg>
