<svg width="850" height="850" viewBox="0 0 850 850" fill="none" xmlns="http://www.w3.org/2000/svg">
<path d="M589.522 347.629C587.905 347.629 586.318 347.823 584.702 347.881C558.969 290.637 501.561 250.716 434.717 250.716C352.137 250.716 283.976 311.608 272.179 390.927C262.356 387.927 251.943 386.291 241.152 386.291C182.341 386.291 134.668 433.954 134.668 492.747C134.668 551.539 182.341 599.221 241.152 599.221H589.522C658.988 599.221 715.313 542.926 715.313 473.44C715.313 403.963 658.988 347.629 589.522 347.629Z" fill="#CEEBEC"/>
<path d="M444.365 599.219H241.152C182.341 599.219 134.668 551.536 134.668 492.744C134.668 433.952 182.341 386.289 241.152 386.289C251.846 386.289 262.172 387.905 271.928 390.847L273.476 391.302C271.328 402.219 270.166 413.474 270.166 425.019C270.166 521.226 348.149 599.219 444.365 599.219Z" fill="#B8D9E3"/>
<path d="M713.125 496.953C714.557 489.337 715.312 481.469 715.312 473.436C715.312 465.142 714.509 457.042 712.98 449.193H713.009C714.538 457.032 715.341 465.123 715.341 473.407C715.341 481.459 714.577 489.327 713.125 496.953ZM711.974 444.354H711.935C698.812 388.901 648.981 347.626 589.521 347.626C588.854 347.626 588.195 347.664 587.537 347.703L587.528 347.684C588.186 347.625 588.854 347.597 589.521 347.597C649.01 347.597 698.851 388.882 711.974 444.354Z" fill="white"/>
<path d="M584.702 347.875C585.65 347.837 586.589 347.749 587.527 347.682L587.537 347.701C586.589 347.759 585.65 347.837 584.702 347.875Z" fill="#BEE5EE"/>
<path d="M713.009 449.194H712.98C712.67 447.568 712.322 445.962 711.935 444.355H711.973C712.351 445.962 712.699 447.568 713.009 449.194Z" fill="#BEE5EE"/>
<path d="M584.316 347.019C584.258 346.893 584.209 346.777 584.151 346.661C584.2 346.777 584.258 346.903 584.316 347.019Z" fill="#BEE5EE"/>
<path d="M684.035 556.258C685.429 548.187 686.309 539.942 686.309 531.474C686.309 451.303 621.314 386.308 541.143 386.308C523.462 386.308 506.594 389.627 490.926 395.414C501.813 381.662 515.565 370.339 531.195 362.103C490.519 317.547 432.037 289.53 366.944 289.53C352.253 289.53 337.95 291.059 324.062 293.778C346.069 273.649 373.486 259.384 403.981 253.606C413.949 251.816 424.188 250.819 434.679 250.819C440.369 250.819 445.982 251.129 451.518 251.671L453.976 251.942C457.818 252.367 461.592 253.006 465.347 253.684C517.665 263.565 561.196 298.162 583.348 344.944C583.377 344.993 583.396 345.041 583.425 345.09C583.483 345.216 583.542 345.341 583.6 345.467C583.638 345.545 583.677 345.632 583.716 345.719C583.764 345.825 583.822 345.941 583.871 346.048C583.9 346.106 583.919 346.164 583.948 346.222C583.967 346.271 583.987 346.309 584.006 346.348C584.054 346.454 584.103 346.551 584.151 346.657C584.209 346.774 584.258 346.89 584.316 347.015C584.354 347.093 584.393 347.18 584.432 347.267C584.519 347.47 584.616 347.674 584.703 347.877C585.651 347.839 586.59 347.761 587.538 347.703C588.197 347.664 588.855 347.626 589.522 347.626C648.982 347.626 698.813 388.901 711.936 444.354C712.323 445.961 712.671 447.567 712.981 449.193C714.51 457.042 715.314 465.142 715.314 473.436C715.314 481.469 714.559 489.337 713.126 496.953C708.839 519.415 698.542 539.728 684.035 556.258Z" fill="#E7F5F7"/>
<path d="M589.531 357.278V337.923C587.17 337.932 585.447 338.145 584.334 338.174L584.712 347.842L593.538 343.874C566.295 283.282 505.49 241.01 434.716 241C347.269 241.019 275.102 305.463 262.608 389.466L272.189 390.888L275.015 381.627C264.292 378.356 252.92 376.575 241.152 376.575C176.998 376.585 125 428.574 125 492.708C125 556.852 176.998 608.85 241.152 608.86H589.531C664.34 608.85 724.99 548.239 725 473.401C724.99 398.573 664.34 337.923 589.531 337.923V357.278C621.613 357.278 650.588 370.256 671.627 391.285C692.657 412.334 705.635 441.3 705.645 473.401C705.635 505.502 692.657 534.467 671.627 555.507C650.588 576.527 621.622 589.495 589.531 589.505H241.152C214.384 589.495 190.247 578.685 172.702 561.149C155.175 543.603 144.355 519.457 144.355 492.708C144.355 465.959 155.165 441.822 172.702 424.277C190.247 406.75 214.384 395.931 241.152 395.931C250.965 395.931 260.421 397.411 269.363 400.14C272.034 400.963 274.985 400.567 277.356 399.066C279.718 397.576 281.344 395.079 281.76 392.311C292.86 317.677 357.014 260.336 434.716 260.355C497.622 260.346 551.623 297.925 575.885 351.81C577.502 355.41 581.141 357.665 585.079 357.51C587.18 357.423 588.641 357.259 589.531 357.278Z" fill="#2D4369"/>
</svg>
