<svg width="850" height="850" viewBox="0 0 850 850" fill="none" xmlns="http://www.w3.org/2000/svg">
<path d="M715.313 511.98C715.313 447.856 663.324 395.848 599.199 395.848C595.425 395.848 591.699 396.061 588.012 396.409C565.163 339.408 509.496 299.09 444.365 299.09C365.356 299.09 300.312 358.289 290.799 434.714L289.522 434.569C236.081 434.569 192.725 477.915 192.725 531.355C192.725 584.805 236.081 628.123 289.522 628.123H599.867C663.682 627.746 715.313 575.892 715.313 511.98Z" fill="#CEEBEC"/>
<path d="M290.799 434.723C296.857 386.122 325.406 344.556 365.695 320.681L365.656 320.604C357.353 264.637 309.08 221.688 250.81 221.688C186.676 221.688 134.678 273.686 134.678 337.82C134.678 395.983 177.424 444.149 233.226 452.627L233.245 452.734C249.107 441.362 268.511 434.578 289.521 434.578L290.799 434.723Z" fill="#FECD03"/>
<path d="M233.227 452.637V452.627H233.217C233.014 452.588 232.811 452.559 232.608 452.53C232.588 452.53 232.569 452.52 232.549 452.52C232.356 452.491 232.162 452.452 231.969 452.423C231.93 452.423 231.901 452.414 231.862 452.404C231.678 452.375 231.504 452.346 231.32 452.317C231.253 452.307 231.185 452.297 231.117 452.278C231.02 452.268 230.924 452.25 230.827 452.23C215.449 449.559 201.145 443.791 188.468 435.701C193.035 435.043 197.671 434.578 202.413 434.578L203.7 434.723C213.214 358.308 278.248 299.1 357.257 299.1C358.282 299.1 359.289 299.206 360.305 299.225C362.724 306.087 364.554 313.219 365.657 320.603L365.696 320.681C325.407 344.556 296.858 386.121 290.8 434.723L289.522 434.578H288.942C288.864 434.578 288.796 434.578 288.729 434.588H288.119C288.042 434.588 287.955 434.588 287.877 434.597C267.515 434.936 248.673 441.565 233.227 452.637Z" fill="#E3B722"/>
<path d="M453.704 628.142H289.522C244.936 628.142 207.368 597.986 196.141 556.943C207.368 597.976 244.936 628.123 289.522 628.123H451.846C452.466 628.133 453.085 628.142 453.704 628.142Z" fill="#E5E5F0"/>
<path d="M451.846 628.123H289.522C244.936 628.123 207.368 597.977 196.141 556.943C195.706 555.346 195.309 553.74 194.951 552.104C193.49 545.427 192.725 538.479 192.725 531.365C192.725 498.926 208.713 470.192 233.226 452.637L233.246 452.734C248.691 441.653 267.495 434.936 287.877 434.598C287.954 434.588 288.041 434.588 288.118 434.588H288.728C288.796 434.578 288.864 434.578 288.941 434.578H289.493L289.502 434.598L291.951 436.233C290.451 445.156 289.502 454.272 289.502 463.631C289.502 553.769 361.988 626.962 451.846 628.123Z" fill="#B8D9E3"/>
<path d="M233.246 452.734L233.227 452.637C248.673 441.566 267.515 434.936 287.877 434.598C267.496 434.936 248.692 441.653 233.246 452.734Z" fill="#CEA52B"/>
<path d="M682.534 592.78C684.906 582.347 686.289 571.547 686.289 560.398C686.289 480.228 621.294 415.233 541.114 415.233C538.878 415.233 536.701 415.465 534.485 415.562C537.901 413.268 541.472 411.226 545.12 409.3C506.148 365.518 449.514 337.82 386.28 337.82C368.773 337.82 351.818 340.085 335.559 344.072C360.14 319.675 392.764 303.406 429.22 299.864C434.204 299.4 439.236 299.109 444.346 299.109C449.195 299.109 453.985 299.429 458.737 299.835C461.031 300.048 463.295 300.319 465.56 300.629C467.263 300.851 468.947 301.132 470.65 301.403C524.178 310.597 568.308 347.265 588.012 396.428L588.651 396.399C592.125 396.08 595.628 395.877 599.18 395.877C663.324 395.877 715.313 447.856 715.313 511.99V513.297C715.313 513.432 715.303 513.568 715.303 513.713V513.955C715.293 514.149 715.293 514.351 715.293 514.545C715.293 514.574 715.284 514.603 715.284 514.622C715.226 517.284 715.081 519.926 714.848 522.539C714.839 522.606 714.829 522.674 714.829 522.742C714.819 522.848 714.81 522.955 714.8 523.061C714.78 523.216 714.771 523.361 714.751 523.516C714.742 523.584 714.732 523.662 714.732 523.739C714.713 523.923 714.693 524.097 714.674 524.281C714.664 524.329 714.665 524.368 714.655 524.417C714.635 524.629 714.616 524.843 714.587 525.065C711.635 551.263 699.945 574.808 682.534 592.78Z" fill="#E7F5F7"/>
<path d="M705.645 511.98H725C724.99 442.514 668.675 386.18 599.209 386.17C595.057 386.17 591.021 386.403 587.102 386.78L588.012 396.409L596.993 392.809C572.73 332.246 513.58 289.431 444.365 289.412C360.401 289.431 291.302 352.298 281.199 433.514L290.799 434.714L291.902 425.094L290.615 424.949L289.522 424.891C230.729 424.9 183.057 472.563 183.047 531.355C183.047 590.157 230.739 637.801 289.522 637.801H599.925C669.063 637.385 724.99 581.224 725 511.98H705.645C705.645 570.56 658.301 618.107 599.809 618.445H599.867H289.522C265.443 618.445 243.717 608.719 227.923 592.944C212.139 577.15 202.403 555.443 202.403 531.355C202.403 507.277 212.139 485.56 227.923 469.766C243.727 453.982 265.443 444.246 289.522 444.246V434.569L288.418 444.178L289.706 444.324C294.99 444.933 299.751 441.178 300.409 435.904C309.322 364.279 370.302 308.748 444.365 308.768C505.412 308.758 557.595 346.559 579.031 400.01C580.628 404.006 584.654 406.455 588.931 406.048C592.376 405.719 595.793 405.525 599.209 405.525C628.619 405.525 655.165 417.429 674.463 436.707C693.741 456.005 705.635 482.56 705.645 511.98Z" fill="#2D4369"/>
<path d="M234.678 443.036C183.57 435.284 144.326 391.115 144.355 337.81C144.355 308.38 156.25 281.834 175.537 262.537C194.825 243.249 221.38 231.355 250.81 231.355C304.222 231.336 348.488 270.753 356.085 322.006C356.868 327.29 361.785 330.949 367.069 330.165C372.363 329.381 376.011 324.455 375.227 319.171C366.227 258.492 313.938 212.019 250.81 212C181.324 212 125 268.324 125 337.81C125.019 400.822 171.288 452.994 231.774 462.178C237.058 462.982 241.994 459.343 242.797 454.059C243.6 448.775 239.962 443.839 234.678 443.036Z" fill="#2D4369"/>
</svg>
