<svg width="850" height="850" viewBox="0 0 850 850" fill="none" xmlns="http://www.w3.org/2000/svg">
<path d="M589.505 284.447C587.889 284.447 586.302 284.632 584.685 284.69C558.953 227.447 501.545 187.526 434.702 187.526C352.124 187.526 283.964 248.418 272.167 327.735C262.345 324.735 251.931 323.1 241.141 323.1C182.33 323.1 134.659 370.772 134.659 429.553C134.659 488.344 182.33 536.026 241.141 536.026H589.505C658.97 536.026 715.294 479.731 715.294 410.246C715.294 340.771 658.97 284.447 589.505 284.447Z" fill="#CEEBEC"/>
<path d="M444.351 536.024H241.141C182.33 536.024 134.659 488.342 134.659 429.551C134.659 370.769 182.33 323.098 241.141 323.098C251.835 323.098 262.161 324.714 271.916 327.656L273.464 328.111C271.316 339.027 270.154 350.282 270.154 361.827C270.154 458.023 348.136 536.024 444.351 536.024Z" fill="#B8D9E3"/>
<path d="M713.097 433.77C714.539 426.153 715.293 418.286 715.293 410.244C715.293 406.982 715.177 403.75 714.926 400.556H714.955C715.197 403.74 715.322 406.963 715.322 410.215C715.322 418.266 714.558 426.144 713.097 433.77ZM714.49 395.717H714.471C709.913 356.097 686.957 322.09 654.373 302.435H654.441C687.015 322.1 709.951 356.107 714.49 395.717ZM645.654 297.597H645.566C628.689 289.177 609.643 284.445 589.504 284.445C587.888 284.445 586.301 284.629 584.685 284.687C586.311 284.619 587.878 284.406 589.504 284.406C609.682 284.406 628.757 289.158 645.654 297.597Z" fill="white"/>
<path d="M654.441 302.438H654.373C651.509 300.716 648.567 299.1 645.567 297.6H645.654C648.654 299.1 651.586 300.716 654.441 302.438Z" fill="#BEE5EE"/>
<path d="M714.956 400.556H714.927C714.811 398.93 714.656 397.314 714.472 395.717H714.492C714.675 397.323 714.83 398.93 714.956 400.556Z" fill="#BEE5EE"/>
<path d="M584.299 283.822C584.241 283.696 584.192 283.58 584.134 283.454C584.183 283.58 584.241 283.696 584.299 283.822ZM583.989 283.154C583.95 283.057 583.902 282.96 583.854 282.854C583.902 282.951 583.95 283.057 583.989 283.154ZM583.408 281.896C583.379 281.848 583.36 281.799 583.331 281.741C583.36 281.79 583.379 281.848 583.408 281.896Z" fill="white"/>
<path d="M684.017 493.064C685.41 484.993 686.291 476.747 686.291 468.28C686.291 388.111 621.296 323.116 541.127 323.116C523.446 323.116 506.578 326.425 490.91 332.222C501.798 318.471 515.549 307.157 531.179 298.912C490.504 254.356 432.022 226.34 366.931 226.34C352.24 226.34 337.937 227.869 324.049 230.588C346.056 210.469 373.473 196.185 403.967 190.417C413.935 188.626 424.174 187.63 434.664 187.63C440.355 187.63 445.968 187.949 451.503 188.481L453.961 188.752C457.803 189.178 461.578 189.817 465.332 190.494C517.649 200.375 561.179 234.972 583.331 281.744C583.36 281.802 583.38 281.85 583.409 281.899C583.467 282.025 583.525 282.141 583.583 282.267C583.622 282.354 583.66 282.441 583.699 282.528C583.747 282.634 583.805 282.75 583.854 282.857C583.902 282.963 583.95 283.06 583.989 283.157C584.038 283.254 584.086 283.36 584.134 283.457C584.192 283.583 584.241 283.699 584.299 283.824C584.338 283.902 584.376 283.989 584.415 284.067C584.502 284.28 584.599 284.483 584.686 284.686C586.302 284.628 587.889 284.444 589.505 284.444C609.645 284.444 628.69 289.176 645.568 297.596C648.568 299.096 651.51 300.712 654.374 302.435C686.959 322.09 709.914 356.097 714.472 395.717C714.656 397.313 714.811 398.93 714.927 400.555C715.178 403.749 715.295 406.982 715.295 410.243C715.295 418.285 714.54 426.153 713.098 433.769C708.811 456.221 698.523 476.534 684.017 493.064Z" fill="#E7F5F7"/>
<path d="M589.533 294.228V274.873C587.191 274.882 585.459 275.086 584.307 275.124L584.704 284.792L593.53 280.824C566.298 220.252 505.493 178.01 434.721 178C347.275 178.019 275.109 242.443 262.615 326.396L272.196 327.819L275.012 318.558C264.299 315.296 252.928 313.506 241.15 313.516C177.007 313.516 125 365.484 125 429.608C125 493.731 177.007 545.709 241.15 545.709H589.533C664.331 545.709 724.99 485.118 725 410.31C724.99 335.512 664.341 274.882 589.533 274.873V294.228C621.614 294.228 650.589 307.205 671.628 328.225C692.658 349.274 705.635 378.229 705.645 410.31C705.635 442.391 692.658 471.347 671.628 492.377C650.589 513.387 621.624 526.354 589.533 526.354H241.15C214.392 526.354 190.256 515.545 172.71 498.019C155.175 480.473 144.365 456.347 144.365 429.608C144.365 402.868 155.175 378.742 172.71 361.206C190.256 343.68 214.392 332.871 241.15 332.871C250.973 332.871 260.428 334.351 269.37 337.08C272.051 337.893 274.993 337.497 277.364 335.997C279.725 334.506 281.351 332.009 281.767 329.242C292.867 254.657 357.01 197.336 434.721 197.355C497.625 197.345 551.636 234.905 575.888 288.77C577.504 292.36 581.162 294.625 585.111 294.461C587.172 294.364 588.624 294.218 589.533 294.228Z" fill="#2D4369"/>
<path d="M550.804 603.766V700.484C550.804 705.826 555.13 710.161 560.482 710.161C565.824 710.161 570.159 705.826 570.159 700.484V603.766C570.159 598.415 565.824 594.089 560.482 594.089C555.13 594.089 550.804 598.415 550.804 603.766Z" fill="#2D4369"/>
<path d="M454.047 603.766V642.389C454.047 647.741 458.373 652.067 463.725 652.067C469.067 652.067 473.402 647.741 473.402 642.389V603.766C473.402 598.415 469.067 594.089 463.725 594.089C458.373 594.089 454.047 598.415 454.047 603.766Z" fill="#2D4369"/>
<path d="M357.252 603.766V700.484C357.252 705.826 361.578 710.161 366.93 710.161C372.272 710.161 376.608 705.826 376.608 700.484V603.766C376.608 598.415 372.272 594.089 366.93 594.089C361.578 594.089 357.252 598.415 357.252 603.766Z" fill="#2D4369"/>
<path d="M260.496 603.766V661.744C260.496 667.096 264.821 671.422 270.173 671.422C275.515 671.422 279.851 667.096 279.851 661.744V603.766C279.851 598.415 275.515 594.089 270.173 594.089C264.821 594.089 260.496 598.415 260.496 603.766Z" fill="#2D4369"/>
<path d="M260.496 710.191V729.546C260.496 734.888 264.821 739.224 270.173 739.224C275.515 739.224 279.851 734.888 279.851 729.546V710.191C279.851 704.849 275.515 700.514 270.173 700.514C264.821 700.514 260.496 704.849 260.496 710.191Z" fill="#2D4369"/>
<path d="M357.252 748.901V768.256C357.252 773.598 361.578 777.934 366.93 777.934C372.272 777.934 376.608 773.598 376.608 768.256V748.901C376.608 743.559 372.272 739.224 366.93 739.224C361.578 739.224 357.252 743.559 357.252 748.901Z" fill="#2D4369"/>
<path d="M454.047 690.807V710.163C454.047 715.505 458.373 719.84 463.725 719.84C469.067 719.84 473.402 715.505 473.402 710.163V690.807C473.402 685.465 469.067 681.13 463.725 681.13C458.373 681.13 454.047 685.465 454.047 690.807Z" fill="#2D4369"/>
<path d="M550.804 748.93V768.285C550.804 773.627 555.13 777.962 560.482 777.962C565.824 777.962 570.159 773.627 570.159 768.285V748.93C570.159 743.578 565.824 739.252 560.482 739.252C555.13 739.252 550.804 743.578 550.804 748.93Z" fill="#2D4369"/>
</svg>
