<svg width="850" height="850" viewBox="0 0 850 850" fill="none" xmlns="http://www.w3.org/2000/svg">
<path d="M676.613 453.917H599.194C588.452 453.917 579.839 445.246 579.839 434.562C579.839 423.868 588.452 415.207 599.194 415.207H599.098C620.485 415.207 637.808 397.865 637.808 376.498C637.808 355.12 620.485 337.788 599.098 337.788H347.581C336.839 337.788 328.226 329.117 328.226 318.433C328.226 307.807 336.743 299.204 347.388 299.097C368.775 299.097 386.098 281.765 386.098 260.387C386.098 239.01 368.775 221.678 347.388 221.678H192.742C171.355 221.678 154.032 239.01 154.032 260.387C154.032 281.765 171.355 299.097 192.742 299.097H251C261.549 299.204 270.161 307.807 270.161 318.433C270.161 329.117 261.452 337.788 250.806 337.788H212.097C190.71 337.788 173.387 355.12 173.387 376.498C173.387 397.865 190.71 415.207 212.097 415.207H454.032C464.677 415.207 473.387 423.868 473.387 434.562C473.387 445.246 464.677 453.917 454.032 453.917H173.387C152 453.917 134.677 471.249 134.677 492.627C134.677 514.004 152 531.336 173.387 531.336H676.613C698 531.336 715.323 514.004 715.323 492.627C715.323 471.249 698 453.917 676.613 453.917Z" fill="#E7F1FB"/>
<path d="M463.71 299.097H521.582C542.872 299.097 560.291 281.765 560.291 260.387C560.291 239.01 542.872 221.678 521.582 221.678H463.71C442.323 221.678 425 239.01 425 260.387C425 281.765 442.323 299.097 463.71 299.097Z" fill="#E7F1FB"/>
<path d="M637.903 299.097H647.291C668.678 299.097 686.001 281.765 686.001 260.387C686.001 239.01 668.678 221.678 647.291 221.678H637.903C616.516 221.678 599.194 239.01 599.194 260.387C599.194 281.765 616.516 299.097 637.903 299.097Z" fill="#E7F1FB"/>
<path d="M598.905 570.046H444.26C422.873 570.046 405.551 587.378 405.551 608.756C405.551 630.133 422.873 647.465 444.26 647.465H598.905C620.292 647.465 637.615 630.133 637.615 608.756C637.615 587.378 620.292 570.046 598.905 570.046Z" fill="#E7F1FB"/>
<path d="M327.938 570.046H299.099C277.712 570.046 260.389 587.378 260.389 608.756C260.389 630.133 277.712 647.465 299.099 647.465H327.938C349.325 647.465 366.647 630.133 366.647 608.756C366.647 587.378 349.325 570.046 327.938 570.046Z" fill="#E7F1FB"/>
<path d="M586.518 420.043C586.421 420.023 586.421 420.003 586.421 419.984C589.711 417.1 593.97 415.31 598.712 415.204C593.97 415.32 589.808 417.159 586.518 420.043Z" fill="#D9DAEA"/>
<path d="M586.42 419.987C582.355 416.446 579.839 411.317 579.839 405.53C579.839 394.836 588.452 386.175 599.194 386.175H599.098C615.356 386.175 629.194 376.159 635.001 361.981C636.743 366.394 637.808 371.204 637.808 376.255V376.498C637.808 397.865 620.485 415.207 599.098 415.207H599.194H598.71C593.968 415.314 589.71 417.104 586.42 419.987Z" fill="#C4CCE4"/>
<path d="M647.291 299.097H637.903C616.516 299.097 599.194 281.765 599.194 260.387C599.194 255.239 600.259 250.352 602.097 245.871C607.807 260.049 621.645 270.065 637.903 270.065H647.291C663.549 270.065 677.388 260.049 683.097 245.871C684.936 250.284 686.001 255.084 686.001 260.146V260.387C686.001 281.765 668.678 299.097 647.291 299.097Z" fill="#C4CCE4"/>
<path d="M466.71 420.046C463.42 417.162 459.162 415.323 454.42 415.207C459.162 415.313 463.42 417.103 466.71 419.987V420.046Z" fill="#D9DAEA"/>
<path d="M466.71 419.987C463.42 417.104 459.162 415.314 454.42 415.207H212.097C190.71 415.207 173.387 397.865 173.387 376.498C173.387 371.349 174.452 366.462 176.291 361.981C182 376.159 195.839 386.175 212.097 386.175H454.032C464.677 386.175 473.387 394.836 473.387 405.53C473.387 411.317 470.775 416.446 466.71 419.987Z" fill="#C4CCE4"/>
<path d="M521.582 299.097H463.71C442.323 299.097 425 281.765 425 260.387C425 255.239 426.065 250.352 427.904 245.871C433.613 260.049 447.452 270.065 463.71 270.065H521.582C537.743 270.065 551.581 260.049 557.388 245.871C559.13 250.284 560.194 255.084 560.194 260.146C560.194 260.223 560.291 260.31 560.291 260.387C560.291 281.765 542.872 299.097 521.582 299.097Z" fill="#C4CCE4"/>
<path d="M334.905 303.926C334.905 303.907 334.808 303.887 334.808 303.868C338.098 301.023 342.26 299.252 346.905 299.107C342.26 299.262 338.099 301.081 334.905 303.926Z" fill="#D9DAEA"/>
<path d="M334.807 303.868C330.839 300.317 328.226 295.188 328.226 289.401C328.226 278.775 336.743 270.161 347.388 270.065C363.646 270.065 377.484 260.049 383.194 245.871C385.033 250.352 386.098 255.239 386.098 260.387C386.098 281.765 368.775 299.097 347.388 299.097H347.098C347.098 299.097 347.001 299.107 346.904 299.107C342.259 299.252 338.097 301.023 334.807 303.868Z" fill="#C4CCE4"/>
<path d="M598.905 647.465H444.26C422.873 647.465 405.551 630.133 405.551 608.755C405.551 603.617 406.614 598.73 408.356 594.239C414.163 608.407 428.002 618.433 444.26 618.433H598.905C615.163 618.433 629.002 608.407 634.711 594.239C636.55 598.652 637.518 603.462 637.615 608.513V608.755C637.615 610.894 637.421 612.984 637.034 615.026C636.84 616.681 636.453 618.287 635.969 619.855C631.227 635.823 616.421 647.465 598.905 647.465Z" fill="#C4CCE4"/>
<path d="M676.613 531.336H173.387C152 531.336 134.677 514.004 134.677 492.626C134.677 487.488 135.646 482.601 137.484 478.11C143.291 492.288 157.129 502.304 173.387 502.304H676.613C692.774 502.304 706.71 492.288 712.42 478.11C714.259 482.523 715.226 487.333 715.323 492.384V492.626C715.323 514.004 698 531.336 676.613 531.336Z" fill="#C4CCE4"/>
<path d="M327.938 647.465H299.099C277.712 647.465 260.389 630.133 260.389 608.755C260.389 603.617 261.453 598.73 263.292 594.239C269.002 608.407 282.841 618.433 299.099 618.433H327.938C344.099 618.433 358.034 608.407 363.744 594.239C365.582 598.652 366.55 603.462 366.647 608.513V608.755C366.647 610.894 366.453 612.984 366.066 615.026C365.872 616.681 365.485 618.287 365.002 619.855C360.26 635.823 345.454 647.465 327.938 647.465Z" fill="#C4CCE4"/>
<path d="M263.484 303.926C260.194 301.081 256.033 299.262 251.388 299.107C256.033 299.252 260.291 301.023 263.484 303.868V303.926Z" fill="#D9DAEA"/>
<path d="M263.484 303.868C260.291 301.023 256.033 299.252 251.388 299.107C251.291 299.107 251.291 299.097 251.194 299.097H192.742C171.355 299.097 154.032 281.765 154.032 260.387C154.032 255.239 155.097 250.352 156.936 245.871C162.646 260.049 176.484 270.065 192.742 270.065H251C261.549 270.161 270.161 278.775 270.161 289.401C270.161 295.188 267.549 300.317 263.484 303.868Z" fill="#C4CCE4"/>
<path d="M676.613 463.594V444.239H599.194C593.774 444.229 589.516 439.894 589.516 434.562C589.516 429.22 593.774 424.894 599.194 424.884C601.71 424.884 604.227 423.849 605.968 422.049C607.807 420.249 608.871 417.752 608.871 415.207C608.871 412.652 607.807 410.165 605.968 408.365C604.227 406.555 601.71 405.529 599.194 405.529H599.098C596.582 405.529 594.065 406.555 592.323 408.365C590.484 410.165 589.42 412.652 589.42 415.207C589.42 417.752 590.484 420.249 592.323 422.049C594.065 423.849 596.582 424.884 599.098 424.884C625.808 424.875 647.485 403.217 647.485 376.497C647.485 349.768 625.808 328.11 599.098 328.11H347.581C342.161 328.1 337.903 323.765 337.903 318.433C337.903 313.129 342.162 308.823 347.485 308.774H347.388C374.098 308.765 395.775 287.106 395.775 260.387C395.775 233.658 374.098 212 347.388 212H192.742C166.032 212 144.355 233.658 144.355 260.387C144.355 287.106 166.032 308.765 192.742 308.774H251H250.903C256.129 308.823 260.484 313.129 260.484 318.433C260.484 323.765 256.129 328.1 250.806 328.11H212.097C185.387 328.11 163.71 349.768 163.71 376.497C163.71 403.217 185.387 424.875 212.097 424.884H454.032C459.355 424.894 463.71 429.22 463.71 434.562C463.71 439.894 459.355 444.229 454.032 444.239H173.387C146.581 444.239 125 465.897 125 492.626C125 519.346 146.581 541.004 173.387 541.013H676.613C703.323 541.004 725 519.346 725 492.626C725 465.897 703.323 444.239 676.613 444.239V463.594C692.581 463.623 705.548 476.6 705.645 492.626C705.548 508.652 692.581 521.629 676.613 521.659H173.387C157.323 521.629 144.355 508.652 144.355 492.626C144.355 476.6 157.323 463.623 173.387 463.594H454.032C470 463.584 483.065 450.597 483.065 434.562C483.065 418.517 470 405.529 454.032 405.529H212.097C196.032 405.5 183.065 392.523 183.065 376.497C183.065 360.471 196.032 347.494 212.097 347.465H250.806C266.774 347.455 279.839 334.468 279.839 318.433C279.839 302.484 266.968 289.574 251.097 289.419H192.742C176.677 289.39 163.71 276.413 163.71 260.387C163.71 244.352 176.677 231.384 192.742 231.355H347.388C363.453 231.384 376.42 244.352 376.42 260.387C376.42 276.413 363.453 289.39 347.388 289.419H347.291C331.323 289.574 318.548 302.484 318.548 318.433C318.548 334.468 331.516 347.455 347.581 347.465H599.098C615.162 347.494 628.13 360.471 628.13 376.497C628.13 392.523 615.162 405.5 599.098 405.529C596.582 405.529 594.065 406.555 592.323 408.365C590.484 410.165 589.42 412.652 589.42 415.207C589.42 417.752 590.484 420.249 592.323 422.049C594.065 423.849 596.582 424.884 599.098 424.884H599.194C601.71 424.884 604.227 423.849 605.968 422.049C607.807 420.249 608.871 417.752 608.871 415.207C608.871 412.652 607.807 410.165 605.968 408.365C604.227 406.555 601.71 405.529 599.194 405.529C583.129 405.529 570.161 418.517 570.161 434.562C570.161 450.597 583.129 463.584 599.194 463.594H676.613Z" fill="#2D4369"/>
<path d="M463.71 289.419V308.774H521.582C548.291 308.765 569.872 287.106 569.969 260.387C569.872 233.658 548.291 212 521.582 212H463.71C437 212 415.323 233.658 415.323 260.387C415.323 287.106 437 308.765 463.71 308.774V289.419C447.645 289.39 434.677 276.413 434.677 260.387C434.677 244.352 447.645 231.384 463.71 231.355H521.582C537.549 231.384 550.517 244.352 550.614 260.387C550.517 276.413 537.549 289.39 521.582 289.419H463.71Z" fill="#2D4369"/>
<path d="M637.903 289.419V308.774H647.291C674.001 308.765 695.678 287.106 695.678 260.387C695.678 233.658 674.001 212 647.291 212H637.903C611.194 212 589.516 233.658 589.516 260.387C589.516 287.106 611.194 308.765 637.903 308.774V289.419C621.839 289.39 608.871 276.413 608.871 260.387C608.871 244.352 621.839 231.384 637.903 231.355H647.291C663.356 231.384 676.323 244.352 676.323 260.387C676.323 276.413 663.356 289.39 647.291 289.419H637.903Z" fill="#2D4369"/>
<path d="M598.905 579.723V560.368H444.26C417.551 560.368 395.873 582.026 395.873 608.755C395.873 635.475 417.551 657.133 444.26 657.142H598.905C625.615 657.133 647.292 635.475 647.292 608.755C647.292 582.026 625.615 560.368 598.905 560.368V579.723C614.873 579.752 627.841 592.729 627.938 608.755C627.841 624.781 614.873 637.758 598.905 637.788H444.26C428.196 637.758 415.228 624.781 415.228 608.755C415.228 592.729 428.196 579.752 444.26 579.723H598.905Z" fill="#2D4369"/>
<path d="M327.938 579.723V560.368H299.099C272.389 560.368 250.712 582.026 250.712 608.755C250.712 635.475 272.389 657.133 299.099 657.142H327.938C354.647 657.133 376.325 635.475 376.325 608.755C376.325 582.026 354.647 560.368 327.938 560.368V579.723C343.905 579.752 356.873 592.729 356.97 608.755C356.873 624.781 343.905 637.758 327.938 637.788H299.099C283.034 637.758 270.067 624.781 270.067 608.755C270.067 592.729 283.034 579.752 299.099 579.723H327.938Z" fill="#2D4369"/>
</svg>
