<svg width="850" height="850" viewBox="0 0 850 850" fill="none" xmlns="http://www.w3.org/2000/svg">
<path d="M618.696 463.509C599.74 418.078 554.909 386.127 502.599 386.127C436.036 386.127 381.703 437.838 377.223 503.259C373.856 502.795 370.517 502.224 367.005 502.224C324.245 502.224 289.594 536.894 289.594 579.634C289.594 622.394 324.245 657.045 367.005 657.045H618.58C672.013 657.045 715.324 613.705 715.324 560.262C715.324 506.859 672.071 463.567 618.696 463.509Z" fill="#CEEBEC"/>
<path d="M444.271 400.495L444.261 400.475C441.61 349.394 399.353 308.802 347.633 308.802C294.181 308.802 250.87 352.122 250.87 405.555C250.87 459.007 294.181 502.318 347.633 502.318C358.152 502.318 368.283 500.644 377.775 497.528L377.891 497.538C382.72 455.321 408.275 419.412 444.271 400.495Z" fill="#FECD03"/>
<path d="M347.634 502.326C341.306 502.326 335.142 501.677 329.162 500.526C334.61 440.31 382.266 392.306 442.433 386.713C443.294 391.067 443.971 395.499 444.233 400.047C444.242 400.192 444.252 400.337 444.262 400.473V400.483L444.271 400.502C408.276 419.419 382.72 455.328 377.892 497.546L377.776 497.536L377.747 497.546C368.264 500.662 358.142 502.326 347.634 502.326Z" fill="#E3B722"/>
<path d="M512.053 657.045H367.005C324.245 657.045 289.594 622.394 289.594 579.634C289.594 536.894 324.245 502.224 367.005 502.224C370.517 502.224 373.856 502.794 377.223 503.259L377.262 502.9L377.92 503.559C377.127 509.462 376.585 515.451 376.585 521.576C376.585 596.394 437.236 657.045 512.053 657.045Z" fill="#B8D9E3"/>
<path d="M683.972 631.374C685.424 624.02 686.217 616.433 686.217 608.663C686.217 544.529 634.236 492.548 570.111 492.548C562.331 492.548 554.745 493.341 547.391 494.802C556.816 484.574 568.437 476.455 581.442 471.017C549.694 436.715 504.438 415.137 453.995 415.137C441.551 415.137 429.485 416.656 417.796 419.162C439.965 398.842 469.4 386.331 501.825 386.137H501.854C502.106 386.137 502.348 386.127 502.599 386.127C554.909 386.127 599.74 418.078 618.696 463.509C620.738 463.509 622.741 463.692 624.744 463.818L624.753 463.838C675.264 467.079 715.256 508.959 715.256 560.282C715.256 588.43 703.161 613.695 683.972 631.374Z" fill="#E7F5F7"/>
<path d="M374.756 488.337C366.231 491.133 357.126 492.643 347.624 492.643C323.549 492.643 301.835 482.918 286.044 467.146C270.271 451.354 260.547 429.64 260.537 405.556C260.547 381.481 270.271 359.768 286.044 343.976C301.835 328.204 323.549 318.479 347.624 318.469C394.177 318.459 432.224 355.026 434.595 400.979C434.875 406.321 439.423 410.423 444.755 410.142C450.096 409.871 454.199 405.314 453.918 399.982C451.006 343.763 404.53 299.136 347.624 299.116C288.831 299.126 241.194 346.772 241.184 405.556C241.194 464.349 288.831 511.995 347.624 511.995C359.187 512.005 370.344 510.157 380.785 506.731C385.865 505.057 388.632 499.59 386.968 494.52C385.304 489.44 379.836 486.672 374.756 488.337Z" fill="#2D4369"/>
<path d="M337.967 192.676V250.928C337.967 256.269 342.302 260.604 347.643 260.604C352.994 260.604 357.319 256.269 357.319 250.928V192.676C357.319 187.335 352.994 183 347.643 183C342.302 183 337.967 187.335 337.967 192.676Z" fill="#2D4369"/>
<path d="M192.918 395.983H134.676C129.325 395.983 125 400.318 125 405.66C125 411.011 129.325 415.336 134.676 415.336H192.918C198.259 415.336 202.594 411.011 202.594 405.66C202.594 400.318 198.259 395.983 192.918 395.983Z" fill="#2D4369"/>
<path d="M190.219 261.915L231.401 303.098C235.175 306.871 241.3 306.871 245.083 303.098C248.857 299.314 248.857 293.189 245.083 289.406L203.901 248.233C200.118 244.45 193.992 244.45 190.219 248.233C186.435 252.007 186.435 258.132 190.219 261.915Z" fill="#2D4369"/>
<path d="M491.393 248.233L450.211 289.406C446.427 293.18 446.427 299.314 450.211 303.088C453.985 306.872 460.11 306.872 463.893 303.088L505.076 261.915C508.849 258.132 508.849 252.007 505.076 248.233C501.292 244.45 495.167 244.45 491.393 248.233Z" fill="#2D4369"/>
<path d="M231.402 508.217L190.2 549.41C186.416 553.183 186.416 559.309 190.2 563.092C193.974 566.866 200.099 566.866 203.882 563.092L245.084 521.9C248.858 518.126 248.858 511.991 245.084 508.217C241.3 504.434 235.176 504.434 231.402 508.217Z" fill="#2D4369"/>
<path d="M618.696 463.509L627.627 459.783C607.23 410.85 558.935 376.471 502.599 376.461C430.907 376.471 372.395 432.138 367.566 502.591L377.223 503.259L378.53 493.67C375.394 493.254 371.582 492.557 366.995 492.548C318.894 492.557 279.918 531.543 279.909 579.635C279.918 627.745 318.904 666.712 366.995 666.722H618.58C677.364 666.712 725 619.056 725 560.263C725 501.518 677.422 453.9 618.706 453.832L618.696 463.509L618.686 473.185C666.71 473.234 705.657 512.2 705.647 560.263C705.647 584.347 695.923 606.06 680.15 621.852C664.358 637.634 642.655 647.359 618.58 647.369H366.995C348.262 647.359 331.396 639.802 319.107 627.532C306.828 615.243 299.271 598.378 299.261 579.635C299.271 560.901 306.828 544.035 319.107 531.737C331.396 519.467 348.262 511.9 366.995 511.9C369.444 511.881 372.317 512.336 375.917 512.848C378.588 513.206 381.249 512.461 383.329 510.758C385.419 509.055 386.696 506.607 386.88 503.917C391.012 443.547 441.164 395.794 502.599 395.814C550.894 395.794 592.26 425.297 609.765 467.234C611.274 470.844 614.777 473.175 618.686 473.185L618.696 463.509Z" fill="#2D4369"/>
</svg>
